<svg id="Layer_1" data-name="Layer 1" xmlns="http://www.w3.org/2000/svg" viewBox="0 0 122.67 103.33"><defs><style>.cls-1,.cls-2,.cls-3,.cls-4{fill:none;}.cls-1,.cls-10,.cls-12,.cls-13,.cls-14,.cls-15,.cls-16,.cls-17,.cls-5,.cls-8,.cls-9{stroke:#2c3e50;}.cls-1,.cls-12,.cls-15,.cls-8{stroke-miterlimit:10;}.cls-1{stroke-width:1.28px;}.cls-11,.cls-2,.cls-3,.cls-4,.cls-6{stroke:#3b97d3;}.cls-10,.cls-11,.cls-13,.cls-14,.cls-16,.cls-17,.cls-2,.cls-3,.cls-4,.cls-5,.cls-6,.cls-9{stroke-linecap:round;stroke-linejoin:round;}.cls-11,.cls-2,.cls-3,.cls-4,.cls-5,.cls-6{stroke-width:1.33px;}.cls-3{stroke-dasharray:0.91 2.55;}.cls-4{stroke-dasharray:0.9 2.51;}.cls-14,.cls-5{fill:#2c3e50;}.cls-11,.cls-12,.cls-13,.cls-15,.cls-16,.cls-6,.cls-7,.cls-8,.cls-9{fill:#fff;}.cls-10,.cls-8,.cls-9{stroke-width:0.43px;}.cls-10{fill:#35495e;}.cls-11{stroke-dasharray:0.91 2.56;}.cls-12,.cls-13{stroke-width:0.39px;}.cls-14{stroke-width:0.42px;}.cls-15,.cls-16,.cls-17{stroke-width:0.41px;}.cls-17{fill:#3b97d2;}</style></defs><title>recast</title><circle class="cls-1" cx="65.72" cy="50.22" r="23.51"/><path class="cls-2" d="M88.86,19.39a70.52,70.52,0,0,0-10.14,6.33"/><path class="cls-2" d="M74.56,54.28C85.63,42.81,93.8,31.77,96.68,24.82"/><path class="cls-2" d="M41,63.26c-7,9.45-10.34,16.84-8,19.13,2.92,2.92,14.13-3.31,27.32-14.59"/><path class="cls-2" d="M80.28,60.79c17.92-1.28,30.82-4.87,30.82-9.09,0-3.15-7.2-6-18.31-7.7"/><path class="cls-2" d="M39.6,43.86C28,45.59,20.34,48.46,20.34,51.7c0,4.51,14.73,8.29,34.57,9.32"/><path class="cls-2" d="M73.8,69l0.36,0.29"/><path class="cls-3" d="M76.16,70.9c10.64,8.28,19.16,12.45,21.65,10,2.11-2.11-.57-8.57-6.49-17"/><path class="cls-2" d="M90.58,62.83l-0.27-.37"/><path class="cls-2" d="M54.4,26L54,25.68"/><path class="cls-4" d="M52,24.18c-9.09-6.62-16.16-9.73-18.39-7.5C30,20.34,40.71,37,57.73,54.33"/><path class="cls-2" d="M58.61,55.22l0.32,0.32"/><circle class="cls-5" cx="66.96" cy="60.79" r="8.78"/><circle class="cls-6" cx="95.06" cy="21.77" r="8.78"/><rect class="cls-7" x="62.24" y="59.51" width="2.36" height="5.91" rx="1" ry="1"/><rect class="cls-7" x="65.78" y="62.47" width="2.36" height="2.95" rx="1" ry="1"/><rect class="cls-7" x="69.21" y="56.16" width="2.36" height="9.26" rx="1" ry="1"/><circle class="cls-8" cx="99.06" cy="22.22" r="0.78"/><circle class="cls-8" cx="91.06" cy="22.22" r="0.78"/><path class="cls-9" d="M91.93,19.17H98.4a0.65,0.65,0,0,1,.65.65v3.42a3.89,3.89,0,0,1-3.89,3.89h0a3.89,3.89,0,0,1-3.89-3.89V19.82A0.65,0.65,0,0,1,91.93,19.17Z"/><path class="cls-10" d="M90.87,22h0a0.41,0.41,0,0,1-.41-0.41v-3a0.41,0.41,0,0,1,.41-0.41h0.86a1.87,1.87,0,0,0,1.11-.37s2.08-.83,7.7.12c0.33,0.05,0,.06,0,0.28v0.88a0.41,0.41,0,0,1-.41.41H91.83a0.41,0.41,0,0,0-.41.37l-0.15,1.78A0.41,0.41,0,0,1,90.87,22Z"/><circle class="cls-6" cx="20.34" cy="52.4" r="8.78"/><circle class="cls-11" cx="98.28" cy="81.57" r="8.78"/><circle class="cls-12" cx="23.99" cy="53.4" r="0.71"/><circle class="cls-12" cx="16.69" cy="53.4" r="0.71"/><path class="cls-13" d="M17.48,50.61h5.91a0.6,0.6,0,0,1,.6.6v3.12a3.55,3.55,0,0,1-3.55,3.55h0a3.55,3.55,0,0,1-3.55-3.55V51.21a0.6,0.6,0,0,1,.6-0.6Z"/><circle class="cls-14" cx="20.21" cy="48" r="1.01"/><path class="cls-14" d="M16.89,51.55a3.55,3.55,0,1,1,7.1,0H22.43L22,51l-0.44.58H16.89Z"/><circle class="cls-15" cx="101.72" cy="82.93" r="0.75"/><circle class="cls-15" cx="94.09" cy="82.93" r="0.75"/><path class="cls-16" d="M94.92,80h6.17a0.62,0.62,0,0,1,.62.62V83.9A3.71,3.71,0,0,1,98,87.61h0A3.71,3.71,0,0,1,94.3,83.9V80.64A0.62,0.62,0,0,1,94.92,80Z"/><path class="cls-17" d="M93.92,82.73h0a0.39,0.39,0,0,1-.39-0.39V79.46a0.39,0.39,0,0,1,.39-0.39h0.82a1.78,1.78,0,0,0,1.06-.35s1.6-2.31,7-1.41a0.36,0.36,0,0,1,.39.39v2.24a0.39,0.39,0,0,1-.39.39H94.83a0.39,0.39,0,0,0-.39.36L94.3,82.37A0.39,0.39,0,0,1,93.92,82.73Z"/></svg>