<svg id="Layer_1" data-name="Layer 1" xmlns="http://www.w3.org/2000/svg" viewBox="0 0 122.67 103.33"><defs><style>.cls-1,.cls-2,.cls-3,.cls-4,.cls-5,.cls-6{fill:none;}.cls-1,.cls-3{stroke:#35495e;}.cls-1{stroke-miterlimit:10;stroke-width:1.62px;}.cls-2,.cls-4,.cls-5,.cls-6,.cls-7{stroke:#3b97d3;}.cls-2,.cls-3,.cls-4,.cls-5,.cls-6,.cls-7{stroke-linecap:round;stroke-linejoin:round;}.cls-2,.cls-3,.cls-4,.cls-5{stroke-width:1.69px;}.cls-4{stroke-dasharray:1.15 3.23;}.cls-5{stroke-dasharray:1.14 3.18;}.cls-6{stroke-width:1.8px;}.cls-7,.cls-8{fill:#3b97d3;}.cls-7{stroke-width:0.9px;}</style></defs><title>recast</title><circle class="cls-1" cx="61.33" cy="55" r="29.76"/><path class="cls-2" d="M90.62,16a89.27,89.27,0,0,0-12.84,8"/><path class="cls-2" d="M72.52,60.14c14-14.53,24.35-28.5,28-37.3"/><path class="cls-2" d="M30,71.51c-8.85,12-13.09,21.32-10.19,24.22,3.7,3.7,17.89-4.2,34.59-18.47"/><path class="cls-3" d="M79.76,68.38c22.69-1.62,39-6.16,39-11.51,0-4-9.11-7.53-23.18-9.75"/><path class="cls-3" d="M28.26,46.94c-14.75,2.2-24.38,5.83-24.38,9.93,0,5.71,18.64,10.5,43.76,11.8"/><path class="cls-2" d="M71.56,78.8L72,79.16"/><path class="cls-4" d="M74.55,81.17C88,91.65,98.8,96.93,102,93.78c2.68-2.68-.72-10.85-8.22-21.5"/><path class="cls-2" d="M92.8,71l-0.34-.47"/><path class="cls-2" d="M47,24.28l-0.46-.35"/><path class="cls-5" d="M44,22c-11.51-8.38-20.46-12.32-23.28-9.5-4.63,4.63,9,25.78,30.51,47.67"/><path class="cls-2" d="M52.34,61.33l0.41,0.41"/><path class="cls-6" d="M69.17,74.43a8.53,8.53,0,1,1,2.24-5.76"/><polygon class="cls-7" points="71.41 72.7 68.82 68.22 74 68.22 71.41 72.7"/><rect class="cls-8" x="93.05" y="10.94" width="2.99" height="7.48" rx="1" ry="1"/><rect class="cls-8" x="97.54" y="14.68" width="2.99" height="3.74" rx="1" ry="1"/><rect class="cls-8" x="101.88" y="6.7" width="2.99" height="11.73" rx="1" ry="1"/></svg>