<svg id="Layer_1" data-name="Layer 1" xmlns="http://www.w3.org/2000/svg" xmlns:xlink="http://www.w3.org/1999/xlink" viewBox="0 0 122.67 103.33"><defs><style>.cls-1,.cls-10,.cls-11,.cls-12,.cls-7,.cls-8,.cls-9{fill:none;}.cls-2{fill:#35495e;}.cls-17,.cls-3{fill:#fff;}.cls-4{fill:#2c3e50;}.cls-5{clip-path:url(#clip-path);}.cls-6{opacity:0.4;}.cls-7,.cls-9{stroke:#ecf0f1;}.cls-7{stroke-miterlimit:10;stroke-width:0.59px;}.cls-10,.cls-11,.cls-12,.cls-13,.cls-8{stroke:#bdc3c7;}.cls-10,.cls-11,.cls-12,.cls-13,.cls-8,.cls-9{stroke-linecap:round;stroke-linejoin:round;}.cls-10,.cls-11,.cls-8,.cls-9{stroke-width:0.62px;}.cls-10{stroke-dasharray:0.42 1.18;}.cls-11{stroke-dasharray:0.41 1.16;}.cls-12{stroke-width:0.66px;}.cls-13,.cls-14{fill:#bdc3c7;}.cls-13{stroke-width:0.33px;}.cls-15{fill:#3b97d3;}.cls-16{fill:#ecf0f1;}.cls-17{opacity:0.05;}</style><clipPath id="clip-path"><rect class="cls-1" x="25.5" y="25.06" width="71.65" height="38.13"/></clipPath></defs><title>recast</title><rect class="cls-2" x="22.01" y="21.76" width="78.65" height="49.01" rx="3.87" ry="3.87"/><rect class="cls-3" x="25.5" y="25.06" width="71.65" height="38.13"/><path class="cls-2" d="M22,63.19v5.46a3.87,3.87,0,0,0,3.87,3.87h70.9a3.87,3.87,0,0,0,3.87-3.87V63.19H22Z"/><rect class="cls-2" x="53.29" y="70.14" width="16.08" height="11.43"/><rect class="cls-4" x="53.29" y="73.11" width="16.08" height="1.83"/><g class="cls-5"><g class="cls-6"><circle class="cls-7" cx="90.63" cy="54.57" r="10.88"/><path class="cls-8" d="M101.34,40.3a32.64,32.64,0,0,0-4.69,2.93"/><path class="cls-8" d="M94.72,56.45C99.85,51.14,103.63,46,105,42.81"/><path class="cls-8" d="M79.18,60.61c-3.24,4.37-4.78,7.8-3.72,8.86,1.35,1.35,6.54-1.53,12.65-6.75"/><path class="cls-8" d="M97.37,59.46c8.3-.59,14.27-2.25,14.27-4.21,0-1.46-3.33-2.75-8.48-3.56"/><path class="cls-9" d="M78.54,51.62c-5.39.8-8.91,2.13-8.91,3.63,0,2.09,6.82,3.84,16,4.31"/><path class="cls-8" d="M94.37,63.27l0.16,0.13"/><path class="cls-10" d="M95.46,64.14c4.92,3.83,8.87,5.76,10,4.61,1-1-.26-4-3-7.86"/><path class="cls-8" d="M102.14,60.41L102,60.23"/><path class="cls-8" d="M85.39,43.34l-0.17-.13"/><path class="cls-11" d="M84.29,42.51C80.08,39.45,76.81,38,75.78,39c-1.69,1.69,3.27,9.42,11.16,17.43"/><path class="cls-8" d="M87.34,56.88L87.49,57"/><path class="cls-12" d="M93.5,61.67a3.12,3.12,0,1,1,.82-2.11"/><polygon class="cls-13" points="94.32 61.04 93.37 59.4 95.26 59.4 94.32 61.04"/><rect class="cls-14" x="102.23" y="38.46" width="1.09" height="2.73" rx="0.55" ry="0.55"/><rect class="cls-14" x="103.87" y="39.83" width="1.09" height="1.37" rx="0.55" ry="0.55"/><rect class="cls-14" x="105.46" y="36.91" width="1.09" height="4.29" rx="0.55" ry="0.55"/></g></g><rect class="cls-15" x="41.54" y="34.25" width="40.24" height="21.93" rx="1" ry="1"/><rect class="cls-2" x="41.54" y="33.74" width="40.24" height="21.93" rx="1" ry="1"/><rect class="cls-16" x="51.58" y="44.42" width="2.36" height="5.91" rx="1" ry="1"/><rect class="cls-16" x="55.13" y="47.38" width="2.36" height="2.95" rx="1" ry="1"/><rect class="cls-16" x="58.55" y="41.07" width="2.36" height="9.26" rx="1" ry="1"/><path class="cls-15" d="M70.3,41.09A4.75,4.75,0,1,0,75,45.84,4.75,4.75,0,0,0,70.3,41.09ZM73,46.68H71.14v1.84H69.45V46.68H67.61V45h1.84V43.15h1.69V45H73v1.68Z"/><polygon class="cls-17" points="25.5 25.06 25.5 55.66 89.19 25.06 25.5 25.06"/></svg>